<svg width="20" height="20" viewBox="0 0 20 20" fill="none" xmlns="http://www.w3.org/2000/svg">
<g clip-path="url(#clip0_342_13041)">
<path d="M10 4.10648L8.23223 5.87424C7.90814 6.19834 7.90814 6.72867 8.23223 7.05276C8.55632 7.37685 9.08665 7.37685 9.41074 7.05276L11.1785 5.28499C12.1508 4.31272 13.7418 4.31272 14.714 5.28499C15.6863 6.25726 15.6863 7.84825 14.714 8.82052L12.9463 10.5883C12.6222 10.9124 12.6222 11.4427 12.9463 11.7668C13.2704 12.0909 13.8007 12.0909 14.1248 11.7668L15.8926 9.99903C17.5189 8.37269 17.5189 5.73282 15.8926 4.10648C14.2662 2.48013 11.6263 2.48013 10 4.10648ZM7.64298 12.3561C7.96707 12.6801 8.4974 12.6801 8.82149 12.3561L12.357 8.82052C12.6811 8.49643 12.6811 7.9661 12.357 7.64201C12.0329 7.31792 11.5026 7.31792 11.1785 7.64201L7.64298 11.1775C7.31888 11.5016 7.31888 12.032 7.64298 12.3561ZM10.5893 12.9453L8.82149 14.7131C7.84921 15.6854 6.25822 15.6854 5.28595 14.7131C4.31368 13.7408 4.31368 12.1498 5.28595 11.1775L7.05372 9.40978C7.37781 9.08569 7.37781 8.55536 7.05372 8.23127C6.72963 7.90718 6.1993 7.90718 5.87521 8.23127L4.10744 9.99903C2.4811 11.6254 2.4811 14.2652 4.10744 15.8916C5.73379 17.5179 8.37365 17.5179 10 15.8916L11.7678 14.1238C12.0919 13.7997 12.0919 13.2694 11.7678 12.9453C11.4437 12.6212 10.9133 12.6212 10.5893 12.9453Z" fill="#372FFF"/>
</g>
<defs>
<clipPath id="clip0_342_13041">
<rect width="20" height="20" fill="white"/>
</clipPath>
</defs>
</svg>
