<svg width="24" height="26" viewBox="0 0 24 26" fill="none" xmlns="http://www.w3.org/2000/svg">
<g id="Delete">
<path id="Fill 1" fill-rule="evenodd" clip-rule="evenodd" d="M12.3082 25.4999C10.6144 25.4999 8.96319 25.4812 7.32944 25.4474C5.23944 25.4062 3.79319 24.0512 3.55694 21.9112C3.16319 18.3612 2.48944 9.99369 2.48319 9.90994C2.44069 9.39369 2.82569 8.94119 3.34194 8.89994C3.85069 8.88619 4.31069 9.24369 4.35194 9.75869C4.35819 9.84369 5.03069 18.1824 5.42069 21.7049C5.55444 22.9212 6.21069 23.5487 7.36819 23.5724C10.4932 23.6387 13.6819 23.6424 17.1194 23.5799C18.3494 23.5562 19.0144 22.9412 19.1519 21.6962C19.5394 18.2037 20.2144 9.84369 20.2219 9.75869C20.2632 9.24369 20.7194 8.88369 21.2307 8.89994C21.7469 8.94244 22.1319 9.39369 22.0907 9.90994C22.0832 9.99494 21.4057 18.3837 21.0157 21.9024C20.7732 24.0862 19.3307 25.4149 17.1532 25.4549C15.4869 25.4837 13.8794 25.4999 12.3082 25.4999Z" fill="#372FFF"/>
<path id="Fill 3" fill-rule="evenodd" clip-rule="evenodd" d="M22.885 6.73682H1.6875C1.17 6.73682 0.75 6.31682 0.75 5.79932C0.75 5.28182 1.17 4.86182 1.6875 4.86182H22.885C23.4025 4.86182 23.8225 5.28182 23.8225 5.79932C23.8225 6.31682 23.4025 6.73682 22.885 6.73682Z" fill="#372FFF"/>
<path id="Fill 5" fill-rule="evenodd" clip-rule="evenodd" d="M18.8005 6.73674C17.378 6.73674 16.143 5.72299 15.863 4.32799L15.5592 2.80799C15.4955 2.57674 15.2317 2.37549 14.9317 2.37549H9.64048C9.34048 2.37549 9.07673 2.57674 9.00048 2.86549L8.70923 4.32799C8.43048 5.72299 7.19423 6.73674 5.77173 6.73674C5.25423 6.73674 4.83423 6.31674 4.83423 5.79924C4.83423 5.28174 5.25423 4.86174 5.77173 4.86174C6.30423 4.86174 6.76673 4.48174 6.87173 3.95924L7.17548 2.43924C7.48423 1.27424 8.49298 0.500488 9.64048 0.500488H14.9317C16.0792 0.500488 17.088 1.27424 17.3842 2.38299L17.7017 3.95924C17.8055 4.48174 18.268 4.86174 18.8005 4.86174C19.318 4.86174 19.738 5.28174 19.738 5.79924C19.738 6.31674 19.318 6.73674 18.8005 6.73674Z" fill="#372FFF"/>
</g>
</svg>
