<svg width="23" height="26" viewBox="0 0 23 26" fill="none" xmlns="http://www.w3.org/2000/svg">
<g id="Paper Upload">
<g id="Group 3">
<mask id="mask0_943_46" style="mask-type:luminance" maskUnits="userSpaceOnUse" x="0" y="0" width="23" height="26">
<path id="Clip 2" fill-rule="evenodd" clip-rule="evenodd" d="M0.750244 0.514648H22.0655V25.3315H0.750244V0.514648Z" fill="white"/>
</mask>
<g mask="url(#mask0_943_46)">
<path id="Fill 1" fill-rule="evenodd" clip-rule="evenodd" d="M6.46658 2.38965C4.39533 2.38965 2.67533 4.06715 2.62658 6.1359V19.5346C2.58158 21.6609 4.25658 23.4109 6.36283 23.4571H16.4666C18.5528 23.3821 20.2041 21.6609 20.1903 19.5409V8.42465L14.3978 2.38965H6.48158H6.46658ZM6.48158 25.3321H6.32408C3.18408 25.2646 0.684079 22.6546 0.751579 19.5146V6.1134C0.825329 3.01215 3.38533 0.514648 6.46283 0.514648H6.48533H14.7966C15.0516 0.514648 15.2953 0.618398 15.4728 0.802148L21.8053 7.3984C21.9716 7.57215 22.0653 7.8059 22.0653 8.04715V19.5346C22.0853 22.6709 19.6403 25.2196 16.4991 25.3321H6.48158Z" fill="#372FFF"/>
</g>
</g>
<path id="Fill 4" fill-rule="evenodd" clip-rule="evenodd" d="M21.1222 9.23049H17.6797C15.391 9.22424 13.5322 7.35924 13.5322 5.07424V1.43799C13.5322 0.920488 13.9522 0.500488 14.4697 0.500488C14.9872 0.500488 15.4072 0.920488 15.4072 1.43799V5.07424C15.4072 6.32924 16.4272 7.35174 17.6822 7.35549H21.1222C21.6397 7.35549 22.0597 7.77549 22.0597 8.29299C22.0597 8.81049 21.6397 9.23049 21.1222 9.23049Z" fill="#372FFF"/>
<path id="Fill 6" fill-rule="evenodd" clip-rule="evenodd" d="M10.927 18.8755C10.4095 18.8755 9.9895 18.4555 9.9895 17.938V10.3867C9.9895 9.86922 10.4095 9.44922 10.927 9.44922C11.4445 9.44922 11.8645 9.86922 11.8645 10.3867V17.938C11.8645 18.4555 11.4445 18.8755 10.927 18.8755Z" fill="#372FFF"/>
<path id="Fill 8" fill-rule="evenodd" clip-rule="evenodd" d="M7.99627 14.2685C7.75752 14.2685 7.51752 14.1773 7.33502 13.9948C6.96877 13.6298 6.96627 13.0373 7.33252 12.6698L10.2625 9.72479C10.615 9.37104 11.24 9.37104 11.5913 9.72479L14.5238 12.6698C14.8888 13.0373 14.8875 13.6298 14.5213 13.9948C14.1538 14.3598 13.56 14.3598 13.195 13.9923L10.9275 11.7148L8.66002 13.9923C8.47752 14.1773 8.23627 14.2685 7.99627 14.2685Z" fill="#372FFF"/>
</g>
</svg>
