<svg width="55" height="54" viewBox="0 0 55 54" fill="none" xmlns="http://www.w3.org/2000/svg">
<g id="Group 427322160">
<g id="Calling">
<g id="Group 3">
<mask id="mask0_973_341" style="mask-type:luminance" maskUnits="userSpaceOnUse" x="32" y="0" width="23" height="23">
<path id="Clip 2" fill-rule="evenodd" clip-rule="evenodd" d="M32.6201 0.311523H54.9322V22.6075H32.6201V0.311523Z" fill="white"/>
</mask>
<g mask="url(#mask0_973_341)">
<path id="Fill 1" fill-rule="evenodd" clip-rule="evenodd" d="M52.9717 22.6075C51.9866 22.6075 51.14 21.868 51.0276 20.8672C50.0373 12.0459 43.1861 5.19989 34.3622 4.22003C33.2882 4.09983 32.5122 3.13304 32.6324 2.0565C32.75 0.982568 33.7089 0.19084 34.7959 0.326714C45.4516 1.51039 53.7268 9.77519 54.921 20.4282C55.0412 21.5048 54.2677 22.4742 53.1938 22.5944C53.1206 22.6022 53.0449 22.6075 52.9717 22.6075" fill="#4A42FF"/>
</g>
</g>
<path id="Fill 4" fill-rule="evenodd" clip-rule="evenodd" d="M43.7216 22.6357C42.8018 22.6357 41.9839 21.9877 41.801 21.0522C41.0485 17.185 38.0671 14.2036 34.2051 13.4537C33.1417 13.2473 32.4492 12.2204 32.6557 11.1569C32.8621 10.0934 33.9073 9.3984 34.9525 9.60744C40.39 10.6631 44.5891 14.8595 45.6473 20.2997C45.8537 21.3658 45.1613 22.3927 44.1004 22.5991C43.9724 22.6226 43.847 22.6357 43.7216 22.6357" fill="#4A42FF"/>
</g>
<path id="Stroke 5" fill-rule="evenodd" clip-rule="evenodd" d="M3.70703 5.76603L3.8966 5.56792C8.93288 0.531185 12.2126 -0.803851 15.7119 1.20842C16.7185 1.78726 17.6622 2.5975 18.9454 3.90078L22.8815 7.98229C25.0555 10.3546 25.5497 12.6301 24.8418 15.295L24.7443 15.6478L24.6361 15.9986L24.1099 17.5424C22.9837 21.0045 23.4538 22.9578 27.4608 26.9638C31.6277 31.1296 33.5728 31.4704 37.302 30.1673L37.9666 29.9362L38.7703 29.6752L39.122 29.5776C41.9545 28.8219 44.3473 29.425 46.8849 31.9609L50.0563 35.0242L50.9899 35.9424C52.0249 36.9979 52.709 37.8342 53.2143 38.7182C55.214 42.2165 53.8775 45.4942 48.696 50.6564L48.2031 51.1559C47.4294 51.9014 46.7066 52.4356 45.6448 52.9398C43.8624 53.786 41.7567 54.1051 39.3099 53.7648C33.2806 52.9263 25.6336 48.169 15.944 38.4819C15.1552 37.6933 14.3998 36.92 13.6769 36.1617L12.2743 34.6648C-0.868512 20.3855 -2.02798 11.6139 3.35809 6.11264L3.70703 5.76603ZM15.7729 6.27051C14.9216 5.43125 14.3032 4.91964 13.758 4.60614C12.5521 3.91266 11.25 4.2058 8.84036 6.27979L8.08321 6.9562C7.95115 7.07811 7.81606 7.20466 7.67782 7.33597L6.8096 8.1816L6.73138 8.27935L6.14278 8.87068C4.72041 10.3235 4.04666 12.0967 4.62725 15.1461C5.57995 20.15 9.94074 26.938 18.715 35.7101C27.8575 44.8502 34.8233 49.1837 39.8497 49.8827C42.7799 50.2902 44.2745 49.5806 45.7988 48.0191L46.9611 46.846C47.5062 46.2757 47.9719 45.7586 48.3652 45.2864L48.9016 44.6105C50.2725 42.7844 50.3978 41.6889 49.8115 40.6632C49.5884 40.273 49.2639 39.8451 48.7915 39.3222L48.1507 38.6454L47.7715 38.2659L43.7704 34.4024C42.4333 33.1694 41.5196 32.9945 40.1323 33.3646L39.7318 33.4798L38.0745 34.0424C33.2663 35.5952 29.7976 34.8423 24.6897 29.7356C19.3993 24.4466 18.7789 20.9147 20.5515 15.8294L20.6652 15.5026L20.9796 14.5552L21.1342 13.9513C21.4083 12.6371 21.0954 11.7208 19.6826 10.3077C19.6244 10.2496 19.5594 10.184 19.4887 10.1123L15.7729 6.27051Z" fill="#4A42FF"/>
</g>
</svg>
