<svg width="16" height="20" viewBox="0 0 16 20" fill="none" xmlns="http://www.w3.org/2000/svg">
<g id="Close">
<path id="Vector" d="M15.6451 0.82117C15.1718 0.267976 14.4073 0.267976 13.934 0.82117L8 7.74319L2.06598 0.806986C1.59272 0.253791 0.828214 0.253791 0.354949 0.806986C-0.118316 1.36018 -0.118316 2.2538 0.354949 2.807L6.28897 9.7432L0.354949 16.6794C-0.118316 17.2326 -0.118316 18.1262 0.354949 18.6794C0.828214 19.2326 1.59272 19.2326 2.06598 18.6794L8 11.7432L13.934 18.6794C14.4073 19.2326 15.1718 19.2326 15.6451 18.6794C16.1183 18.1262 16.1183 17.2326 15.6451 16.6794L9.71104 9.7432L15.6451 2.807C16.1062 2.26799 16.1062 1.36018 15.6451 0.82117Z" fill="#4D4D4D"/>
</g>
</svg>
