<svg width="16" height="14" viewBox="0 0 16 14" fill="none" xmlns="http://www.w3.org/2000/svg">
<g id="Close">
<path id="Vector" d="M15.6451 1.26975C15.1718 0.88798 14.4073 0.88798 13.934 1.26975L8 6.04673L2.06598 1.25996C1.59272 0.878191 0.828214 0.878191 0.354949 1.25996C-0.118316 1.64173 -0.118316 2.25843 0.354949 2.64019L6.28897 7.42697L0.354949 12.2137C-0.118316 12.5955 -0.118316 13.2122 0.354949 13.594C0.828214 13.9757 1.59272 13.9757 2.06598 13.594L8 8.8072L13.934 13.594C14.4073 13.9757 15.1718 13.9757 15.6451 13.594C16.1183 13.2122 16.1183 12.5955 15.6451 12.2137L9.71104 7.42697L15.6451 2.64019C16.1062 2.26822 16.1062 1.64173 15.6451 1.26975Z" fill="#4D4D4D"/>
</g>
</svg>
