<svg width="18" height="20" viewBox="0 0 18 20" fill="none" xmlns="http://www.w3.org/2000/svg">
<g id="Swap">
<path id="Stroke 1" d="M15.1738 14.8887C15.1738 15.2608 14.8974 15.5682 14.5387 15.6169L14.4389 15.6236L1.0954 15.6236C0.68953 15.6236 0.360506 15.2946 0.360506 14.8887C0.360506 14.5167 0.636978 14.2092 0.995681 14.1605L1.0954 14.1538L14.4389 14.1538C14.8448 14.1538 15.1738 14.4828 15.1738 14.8887Z" fill="#4A42FF"/>
<path id="Stroke 3" d="M5.62755 18.3636C5.9152 18.6499 5.91628 19.1152 5.62995 19.4029C5.36965 19.6644 4.96143 19.689 4.67324 19.4762L4.59065 19.4053L0.576486 15.4096C0.314125 15.1485 0.290274 14.7386 0.504933 14.4504L0.576486 14.3679L4.59065 10.3722C4.87831 10.0859 5.34362 10.087 5.62995 10.3747C5.89025 10.6362 5.91302 11.0445 5.69889 11.3317L5.62755 11.4139L2.13729 14.8883L5.62755 18.3636Z" fill="#4A42FF"/>
<path id="Stroke 5" d="M17.8328 5.16019C17.8328 5.53224 17.5563 5.83971 17.1976 5.88838L17.0979 5.89508L3.75434 5.89508C3.34847 5.89508 3.01944 5.56606 3.01944 5.16019C3.01944 4.78814 3.29591 4.48066 3.65462 4.432L3.75434 4.42529L17.0979 4.42529C17.5037 4.42529 17.8328 4.75432 17.8328 5.16019Z" fill="#4A42FF"/>
<path id="Stroke 7" d="M17.6169 4.63939C17.8793 4.90054 17.9031 5.31037 17.6885 5.59855L17.6169 5.68109L13.6028 9.67674C13.3151 9.96307 12.8498 9.962 12.5635 9.67434C12.3032 9.41284 12.2804 9.00451 12.4945 8.7173L12.5659 8.63505L16.0572 5.16002L12.5659 1.68543C12.3044 1.42513 12.2797 1.01691 12.4925 0.728724L12.5635 0.646135C12.8238 0.384629 13.232 0.359967 13.5202 0.572769L13.6028 0.643734L17.6169 4.63939Z" fill="#4A42FF"/>
</g>
</svg>
