<svg width="26" height="26" viewBox="0 0 26 26" fill="none" xmlns="http://www.w3.org/2000/svg">
<g id="Edit Square">
<path id="Fill 1" fill-rule="evenodd" clip-rule="evenodd" d="M18.7215 25.9609H7.69149C3.39024 25.9609 0.500244 22.9421 0.500244 18.4496V8.05715C0.500244 3.56465 3.39024 0.545898 7.69149 0.545898H12.3652C12.8827 0.545898 13.3027 0.965898 13.3027 1.4834C13.3027 2.0009 12.8827 2.4209 12.3652 2.4209H7.69149C4.46149 2.4209 2.37524 4.6334 2.37524 8.05715V18.4496C2.37524 21.8734 4.46149 24.0859 7.69149 24.0859H18.7215C21.9515 24.0859 24.039 21.8734 24.039 18.4496V13.4146C24.039 12.8971 24.459 12.4771 24.9765 12.4771C25.494 12.4771 25.914 12.8971 25.914 13.4146V18.4496C25.914 22.9421 23.0227 25.9609 18.7215 25.9609Z" fill="#337AFF"/>
<path id="Fill 3" fill-rule="evenodd" clip-rule="evenodd" d="M9.08521 17.2856H12.8065C13.2815 17.2856 13.7265 17.1018 14.0627 16.7656L23.449 7.37931C23.834 6.99431 24.0465 6.48181 24.0465 5.93681C24.0465 5.39056 23.834 4.87681 23.449 4.49181L21.9277 2.97056C21.1315 2.17681 19.8365 2.17681 19.039 2.97056L9.69771 12.3118C9.37396 12.6356 9.19021 13.0656 9.17896 13.5218L9.08521 17.2856ZM12.8061 19.1605H8.12358C7.87108 19.1605 7.62858 19.058 7.45233 18.8767C7.27608 18.6967 7.17983 18.453 7.18608 18.1992L7.30358 13.4755C7.32733 12.5355 7.70608 11.6517 8.37108 10.9855H8.37233L17.7136 1.64424C19.2411 0.119238 21.7248 0.119238 23.2523 1.64424L24.7736 3.16549C25.5148 3.90549 25.9223 4.88924 25.9211 5.93674C25.9211 6.98424 25.5136 7.96674 24.7736 8.70549L15.3873 18.0917C14.6986 18.7805 13.7811 19.1605 12.8061 19.1605Z" fill="#337AFF"/>
<path id="Fill 5" fill-rule="evenodd" clip-rule="evenodd" d="M22.6635 10.3959C22.4235 10.3959 22.1835 10.3047 22.001 10.1209L16.2935 4.41344C15.9272 4.04719 15.9272 3.45344 16.2935 3.08719C16.6597 2.72094 17.2522 2.72094 17.6185 3.08719L23.326 8.79594C23.6922 9.16219 23.6922 9.75469 23.326 10.1209C23.1435 10.3047 22.9035 10.3959 22.6635 10.3959Z" fill="#337AFF"/>
</g>
</svg>
