<svg width="26" height="26" viewBox="0 0 26 26" fill="none" xmlns="http://www.w3.org/2000/svg">
<g id="Group 427321981">
<path id="Subtract" fill-rule="evenodd" clip-rule="evenodd" d="M3.43047 1.73085H15.7239C16.611 1.73085 17.3301 2.41318 17.3301 3.25488V11.1651C17.3301 11.951 18.3451 12.33 18.9096 11.755C19.0669 11.5948 19.1543 11.384 19.1543 11.1651V3.25488C19.1543 1.45726 17.6185 0 15.7239 0H3.43047C1.53587 0 0 1.45726 0 3.25488V18.9577C0 20.7553 1.53588 22.2126 3.43047 22.2126H10.2374C10.749 22.2126 11.1606 21.8133 11.1493 21.3279C11.1382 20.8575 10.7332 20.4817 10.2374 20.4817H3.43047C2.54337 20.4817 1.82422 19.7994 1.82422 18.9577V3.25488C1.82422 2.41318 2.54336 1.73085 3.43047 1.73085ZM11.9975 20.4817C11.9974 20.4817 11.9973 20.4818 11.9974 20.4819L13.9555 22.2125C13.9555 22.2125 13.9555 22.2126 13.9555 22.2126C13.9556 22.2126 13.9557 22.2124 13.9556 22.2124L11.9976 20.4817C11.9975 20.4817 11.9975 20.4817 11.9975 20.4817Z" fill="#337AFF"/>
<path id="Union (Stroke)" fill-rule="evenodd" clip-rule="evenodd" d="M21.6609 16.5165L22.9043 15.25C22.936 15.2177 23.0256 15.0996 22.9773 14.8057C22.9285 14.5085 22.7396 14.1202 22.3514 13.777C21.9631 13.4339 21.5415 13.2826 21.2256 13.2574C20.9189 13.233 20.7998 13.3223 20.7656 13.3562L20.746 13.3763L14.0684 20.1778L14.0194 22.2635L16.2094 22.0694L21.6609 16.5165ZM17.0704 23.7317L13.089 24.0844C12.5889 24.1288 12.1597 23.7495 12.1709 23.273L12.2601 19.4802L19.4112 12.1965L19.4289 12.1782C20.4014 11.1877 22.2665 11.3365 23.5948 12.5105C24.9231 13.6846 25.2116 15.4392 24.2392 16.4297L17.0704 23.7317Z" fill="#337AFF"/>
<path id="Vector 257 (Stroke)" fill-rule="evenodd" clip-rule="evenodd" d="M3.57227 6.05727C3.57227 5.6988 3.87854 5.4082 4.25635 5.4082H14.8976C15.2755 5.4082 15.5817 5.6988 15.5817 6.05727C15.5817 6.41574 15.2755 6.70634 14.8976 6.70634H4.25635C3.87854 6.70634 3.57227 6.41574 3.57227 6.05727Z" fill="#337AFF"/>
<path id="Vector 258 (Stroke)" fill-rule="evenodd" clip-rule="evenodd" d="M3.57227 10.0963C3.57227 9.73786 3.87854 9.44727 4.25635 9.44727H12.7694C13.1472 9.44727 13.4535 9.73786 13.4535 10.0963C13.4535 10.4548 13.1472 10.7454 12.7694 10.7454H4.25635C3.87854 10.7454 3.57227 10.4548 3.57227 10.0963Z" fill="#337AFF"/>
<path id="Vector 259 (Stroke)" fill-rule="evenodd" clip-rule="evenodd" d="M3.57227 14.1349C3.57227 13.7764 3.87854 13.4858 4.25635 13.4858H10.6411C11.0189 13.4858 11.3252 13.7764 11.3252 14.1349C11.3252 14.4934 11.0189 14.784 10.6411 14.784H4.25635C3.87854 14.784 3.57227 14.4934 3.57227 14.1349Z" fill="#337AFF"/>
<path id="Vector 260 (Stroke)" fill-rule="evenodd" clip-rule="evenodd" d="M18.5093 13.2344C18.8655 12.8965 19.4431 12.8965 19.7993 13.2344L22.5356 15.8307C22.8918 16.1687 22.8918 16.7166 22.5356 17.0546C22.1794 17.3926 21.6019 17.3926 21.2457 17.0546L18.5093 14.4583C18.1531 14.1204 18.1531 13.5724 18.5093 13.2344Z" fill="#337AFF"/>
</g>
</svg>
