<svg width="26" height="26" viewBox="0 0 26 26" fill="none" xmlns="http://www.w3.org/2000/svg">
<g id="Group 427321992">
<path id="Vector (Stroke)" fill-rule="evenodd" clip-rule="evenodd" d="M13 24.375C19.2822 24.375 24.375 19.2822 24.375 13C24.375 6.71776 19.2822 1.625 13 1.625C6.71776 1.625 1.625 6.71776 1.625 13C1.625 19.2822 6.71776 24.375 13 24.375ZM26 13C26 20.1797 20.1797 26 13 26C5.8203 26 0 20.1797 0 13C0 5.8203 5.8203 0 13 0C20.1797 0 26 5.8203 26 13Z" fill="#337AFF"/>
<path id="Polygon 7 (Stroke)" fill-rule="evenodd" clip-rule="evenodd" d="M10.5625 16.5184L16.6562 13.0001L10.5625 9.48191L10.5625 16.5184ZM17.4687 14.4074C18.5521 13.782 18.5521 12.2183 17.4688 11.5929L11.375 8.07463C10.2917 7.44916 8.9375 8.23099 8.9375 9.48191L8.9375 16.5184C8.9375 17.7693 10.2917 18.5511 11.375 17.9257L17.4687 14.4074Z" fill="#337AFF"/>
</g>
</svg>
