<svg width="26" height="26" viewBox="0 0 26 26" fill="none" xmlns="http://www.w3.org/2000/svg">
<g id="Group 427321964">
<path id="Vector (Stroke)" fill-rule="evenodd" clip-rule="evenodd" d="M13 24.375C19.2822 24.375 24.375 19.2822 24.375 13C24.375 6.71776 19.2822 1.625 13 1.625C6.71776 1.625 1.625 6.71776 1.625 13C1.625 19.2822 6.71776 24.375 13 24.375ZM26 13C26 20.1797 20.1797 26 13 26C5.8203 26 0 20.1797 0 13C0 5.8203 5.8203 0 13 0C20.1797 0 26 5.8203 26 13Z" fill="#337AFF"/>
<path id="Vector (Stroke)_2" fill-rule="evenodd" clip-rule="evenodd" d="M13 13.9885C14.8181 13.9885 16.4317 12.4127 16.4317 10.2919C16.4317 8.17105 14.8181 6.59521 13 6.59521C11.182 6.59521 9.56836 8.17106 9.56836 10.2919C9.56836 12.4127 11.182 13.9885 13 13.9885ZM18.0567 10.2919C18.0567 13.2309 15.7928 15.6135 13 15.6135C10.2073 15.6135 7.94336 13.2309 7.94336 10.2919C7.94336 7.3528 10.2073 4.97021 13 4.97021C15.7928 4.97021 18.0567 7.3528 18.0567 10.2919Z" fill="#337AFF"/>
<path id="Vector (Stroke)_3" fill-rule="evenodd" clip-rule="evenodd" d="M5.63518 21.6652C7.62129 23.3563 10.1911 24.375 13.0001 24.375C15.8092 24.375 18.3792 23.3561 20.3654 21.6648C18.5604 20.379 15.9704 19.519 13.0001 19.519C10.0306 19.519 7.44063 20.3798 5.63518 21.6652ZM22.7521 21.5917C20.3693 24.2937 16.8844 26 13.0001 26C9.11571 26 5.63084 24.2937 3.24805 21.5917C5.3478 19.3635 8.93103 17.894 13.0001 17.894C17.0691 17.894 20.6523 19.3615 22.7521 21.5917Z" fill="#337AFF"/>
</g>
</svg>
